<svg width="59" height="298" viewBox="0 0 59 298" fill="none" xmlns="http://www.w3.org/2000/svg">
<path d="M1 7L1 293H31L31 7H1Z" fill="url(#paint0_linear_1_3)" stroke="#D3D3D3"/>
<path d="M40.125 295.654C39.59 295.654 39.1342 295.509 38.7578 295.218C38.3814 294.924 38.0938 294.499 37.8949 293.943C37.696 293.384 37.5966 292.709 37.5966 291.919C37.5966 291.133 37.696 290.461 37.8949 289.905C38.0961 289.346 38.3849 288.92 38.7614 288.627C39.1402 288.331 39.5947 288.183 40.125 288.183C40.6553 288.183 41.1087 288.331 41.4851 288.627C41.8639 288.92 42.1527 289.346 42.3516 289.905C42.5528 290.461 42.6534 291.133 42.6534 291.919C42.6534 292.709 42.554 293.384 42.3551 293.943C42.1562 294.499 41.8686 294.924 41.4922 295.218C41.1158 295.509 40.66 295.654 40.125 295.654ZM40.125 294.873C40.6553 294.873 41.0672 294.617 41.3608 294.106C41.6544 293.595 41.8011 292.866 41.8011 291.919C41.8011 291.289 41.7337 290.753 41.5987 290.31C41.4661 289.867 41.2744 289.53 41.0234 289.298C40.7749 289.066 40.4754 288.95 40.125 288.95C39.5994 288.95 39.1887 289.209 38.8928 289.728C38.5968 290.244 38.4489 290.974 38.4489 291.919C38.4489 292.548 38.5152 293.083 38.6477 293.524C38.7803 293.964 38.9709 294.299 39.2195 294.529C39.4704 294.758 39.7723 294.873 40.125 294.873ZM44.3739 295.612C44.1987 295.612 44.0484 295.549 43.9229 295.424C43.7975 295.298 43.7347 295.148 43.7347 294.973C43.7347 294.797 43.7975 294.647 43.9229 294.522C44.0484 294.396 44.1987 294.333 44.3739 294.333C44.5491 294.333 44.6995 294.396 44.8249 294.522C44.9504 294.647 45.0131 294.797 45.0131 294.973C45.0131 295.089 44.9835 295.195 44.9244 295.292C44.8675 295.389 44.7906 295.467 44.6935 295.527C44.5988 295.583 44.4923 295.612 44.3739 295.612ZM48.6211 295.654C48.0861 295.654 47.6303 295.509 47.2539 295.218C46.8775 294.924 46.5898 294.499 46.391 293.943C46.1921 293.384 46.0927 292.709 46.0927 291.919C46.0927 291.133 46.1921 290.461 46.391 289.905C46.5922 289.346 46.881 288.92 47.2575 288.627C47.6362 288.331 48.0908 288.183 48.6211 288.183C49.1514 288.183 49.6048 288.331 49.9812 288.627C50.36 288.92 50.6488 289.346 50.8477 289.905C51.0489 290.461 51.1495 291.133 51.1495 291.919C51.1495 292.709 51.0501 293.384 50.8512 293.943C50.6523 294.499 50.3647 294.924 49.9883 295.218C49.6119 295.509 49.1561 295.654 48.6211 295.654ZM48.6211 294.873C49.1514 294.873 49.5633 294.617 49.8569 294.106C50.1504 293.595 50.2972 292.866 50.2972 291.919C50.2972 291.289 50.2298 290.753 50.0948 290.31C49.9622 289.867 49.7705 289.53 49.5195 289.298C49.271 289.066 48.9715 288.95 48.6211 288.95C48.0955 288.95 47.6848 289.209 47.3888 289.728C47.0929 290.244 46.945 290.974 46.945 291.919C46.945 292.548 47.0112 293.083 47.1438 293.524C47.2764 293.964 47.467 294.299 47.7156 294.529C47.9665 294.758 48.2683 294.873 48.6211 294.873ZM54.8711 295.654C54.3361 295.654 53.8803 295.509 53.5039 295.218C53.1275 294.924 52.8398 294.499 52.641 293.943C52.4421 293.384 52.3427 292.709 52.3427 291.919C52.3427 291.133 52.4421 290.461 52.641 289.905C52.8422 289.346 53.131 288.92 53.5075 288.627C53.8862 288.331 54.3408 288.183 54.8711 288.183C55.4014 288.183 55.8548 288.331 56.2312 288.627C56.61 288.92 56.8988 289.346 57.0977 289.905C57.2989 290.461 57.3995 291.133 57.3995 291.919C57.3995 292.709 57.3001 293.384 57.1012 293.943C56.9023 294.499 56.6147 294.924 56.2383 295.218C55.8619 295.509 55.4061 295.654 54.8711 295.654ZM54.8711 294.873C55.4014 294.873 55.8133 294.617 56.1069 294.106C56.4004 293.595 56.5472 292.866 56.5472 291.919C56.5472 291.289 56.4798 290.753 56.3448 290.31C56.2122 289.867 56.0205 289.53 55.7695 289.298C55.521 289.066 55.2215 288.95 54.8711 288.95C54.3455 288.95 53.9348 289.209 53.6388 289.728C53.3429 290.244 53.195 290.974 53.195 291.919C53.195 292.548 53.2612 293.083 53.3938 293.524C53.5264 293.964 53.717 294.299 53.9656 294.529C54.2165 294.758 54.5183 294.873 54.8711 294.873Z" fill="#292724"/>
<path d="M40.125 254.797C39.59 254.797 39.1342 254.652 38.7578 254.361C38.3814 254.067 38.0938 253.642 37.8949 253.086C37.696 252.527 37.5966 251.852 37.5966 251.062C37.5966 250.276 37.696 249.604 37.8949 249.048C38.0961 248.489 38.3849 248.063 38.7614 247.77C39.1402 247.474 39.5947 247.326 40.125 247.326C40.6553 247.326 41.1087 247.474 41.4851 247.77C41.8639 248.063 42.1527 248.489 42.3516 249.048C42.5528 249.604 42.6534 250.276 42.6534 251.062C42.6534 251.852 42.554 252.527 42.3551 253.086C42.1562 253.642 41.8686 254.067 41.4922 254.361C41.1158 254.652 40.66 254.797 40.125 254.797ZM40.125 254.016C40.6553 254.016 41.0672 253.76 41.3608 253.249C41.6544 252.738 41.8011 252.008 41.8011 251.062C41.8011 250.432 41.7337 249.896 41.5987 249.453C41.4661 249.01 41.2744 248.673 41.0234 248.441C40.7749 248.209 40.4754 248.093 40.125 248.093C39.5994 248.093 39.1887 248.352 38.8928 248.87C38.5968 249.387 38.4489 250.117 38.4489 251.062C38.4489 251.691 38.5152 252.226 38.6477 252.667C38.7803 253.107 38.9709 253.442 39.2195 253.672C39.4704 253.901 39.7723 254.016 40.125 254.016ZM44.3739 254.755C44.1987 254.755 44.0484 254.692 43.9229 254.566C43.7975 254.441 43.7347 254.291 43.7347 254.115C43.7347 253.94 43.7975 253.79 43.9229 253.664C44.0484 253.539 44.1987 253.476 44.3739 253.476C44.5491 253.476 44.6995 253.539 44.8249 253.664C44.9504 253.79 45.0131 253.94 45.0131 254.115C45.0131 254.231 44.9835 254.338 44.9244 254.435C44.8675 254.532 44.7906 254.61 44.6935 254.669C44.5988 254.726 44.4923 254.755 44.3739 254.755ZM48.1905 247.425V254.698H47.3098V248.348H47.2672L45.4917 249.527V248.633L47.3098 247.425H48.1905ZM50.1117 253.206V252.482L53.3077 247.425H53.8333V248.547H53.4782L51.0634 252.368V252.425H55.3674V253.206H50.1117ZM53.535 254.698V252.986V252.649V247.425H54.373V254.698H53.535Z" fill="#292724"/>
<path d="M40.125 213.94C39.59 213.94 39.1342 213.795 38.7578 213.503C38.3814 213.21 38.0938 212.785 37.8949 212.228C37.696 211.67 37.5966 210.995 37.5966 210.204C37.5966 209.418 37.696 208.747 37.8949 208.191C38.0961 207.632 38.3849 207.206 38.7614 206.912C39.1402 206.617 39.5947 206.469 40.125 206.469C40.6553 206.469 41.1087 206.617 41.4851 206.912C41.8639 207.206 42.1527 207.632 42.3516 208.191C42.5528 208.747 42.6534 209.418 42.6534 210.204C42.6534 210.995 42.554 211.67 42.3551 212.228C42.1562 212.785 41.8686 213.21 41.4922 213.503C41.1158 213.795 40.66 213.94 40.125 213.94ZM40.125 213.159C40.6553 213.159 41.0672 212.903 41.3608 212.392C41.6544 211.88 41.8011 211.151 41.8011 210.204C41.8011 209.575 41.7337 209.038 41.5987 208.596C41.4661 208.153 41.2744 207.816 41.0234 207.584C40.7749 207.352 40.4754 207.236 40.125 207.236C39.5994 207.236 39.1887 207.495 38.8928 208.013C38.5968 208.529 38.4489 209.26 38.4489 210.204C38.4489 210.834 38.5152 211.369 38.6477 211.809C38.7803 212.25 38.9709 212.585 39.2195 212.814C39.4704 213.044 39.7723 213.159 40.125 213.159ZM44.3739 213.898C44.1987 213.898 44.0484 213.835 43.9229 213.709C43.7975 213.584 43.7347 213.434 43.7347 213.258C43.7347 213.083 43.7975 212.933 43.9229 212.807C44.0484 212.682 44.1987 212.619 44.3739 212.619C44.5491 212.619 44.6995 212.682 44.8249 212.807C44.9504 212.933 45.0131 213.083 45.0131 213.258C45.0131 213.374 44.9835 213.481 44.9244 213.578C44.8675 213.675 44.7906 213.753 44.6935 213.812C44.5988 213.869 44.4923 213.898 44.3739 213.898ZM46.5028 213.841V213.201L48.9034 210.574C49.1851 210.266 49.4171 209.998 49.5994 209.771C49.7817 209.541 49.9167 209.326 50.0043 209.125C50.0942 208.921 50.1392 208.708 50.1392 208.486C50.1392 208.23 50.0777 208.009 49.9545 207.822C49.8338 207.634 49.6681 207.49 49.4574 207.388C49.2467 207.286 49.0099 207.236 48.7472 207.236C48.4678 207.236 48.224 207.294 48.0156 207.41C47.8097 207.523 47.6499 207.683 47.5362 207.889C47.425 208.095 47.3693 208.336 47.3693 208.613H46.5312C46.5312 208.187 46.6295 207.813 46.826 207.491C47.0225 207.169 47.29 206.918 47.6286 206.738C47.9695 206.559 48.3518 206.469 48.7756 206.469C49.2017 206.469 49.5793 206.559 49.9084 206.738C50.2375 206.918 50.4955 207.161 50.6825 207.466C50.8696 207.772 50.9631 208.112 50.9631 208.486C50.9631 208.753 50.9145 209.015 50.8175 209.27C50.7228 209.524 50.5571 209.807 50.3203 210.119C50.0859 210.429 49.7604 210.808 49.3438 211.255L47.7102 213.003V213.059H51.0909V213.841H46.5028ZM54.8729 206.469C55.1712 206.471 55.4695 206.528 55.7678 206.639C56.0661 206.75 56.3383 206.935 56.5845 207.193C56.8307 207.449 57.0284 207.798 57.1776 208.241C57.3267 208.683 57.4013 209.238 57.4013 209.906C57.4013 210.552 57.3397 211.126 57.2166 211.628C57.0959 212.128 56.9207 212.549 56.6911 212.893C56.4638 213.236 56.1868 213.496 55.8601 213.674C55.5357 213.851 55.1688 213.94 54.7592 213.94C54.352 213.94 53.9886 213.86 53.669 213.699C53.3518 213.535 53.0914 213.309 52.8878 213.02C52.6866 212.729 52.5575 212.392 52.5007 212.008H53.3672C53.4453 212.342 53.6004 212.618 53.8324 212.836C54.0668 213.051 54.3757 213.159 54.7592 213.159C55.3203 213.159 55.763 212.914 56.0874 212.424C56.4141 211.934 56.5774 211.241 56.5774 210.346H56.5206C56.388 210.545 56.2306 210.717 56.0483 210.861C55.866 211.006 55.6636 211.117 55.4411 211.195C55.2185 211.273 54.9818 211.312 54.7308 211.312C54.3142 211.312 53.9318 211.209 53.5838 211.003C53.2382 210.795 52.9612 210.51 52.7528 210.148C52.5469 209.783 52.4439 209.366 52.4439 208.898C52.4439 208.452 52.5433 208.045 52.7422 207.676C52.9434 207.304 53.2251 207.008 53.5874 206.788C53.9519 206.568 54.3804 206.461 54.8729 206.469ZM54.8729 207.25C54.5746 207.25 54.3059 207.324 54.0668 207.474C53.83 207.62 53.6418 207.819 53.5021 208.07C53.3648 208.319 53.2962 208.594 53.2962 208.898C53.2962 209.201 53.3625 209.476 53.495 209.725C53.63 209.971 53.8134 210.168 54.0455 210.314C54.2798 210.459 54.5462 210.531 54.8445 210.531C55.0694 210.531 55.2789 210.487 55.473 210.4C55.6671 210.31 55.8364 210.188 55.9808 210.034C56.1276 209.878 56.2424 209.701 56.3253 209.505C56.4081 209.306 56.4496 209.099 56.4496 208.883C56.4496 208.599 56.3809 208.333 56.2436 208.084C56.1087 207.836 55.9216 207.634 55.6825 207.481C55.4458 207.327 55.1759 207.25 54.8729 207.25Z" fill="#292724"/>
<path d="M40.125 173.083C39.59 173.083 39.1342 172.937 38.7578 172.646C38.3814 172.353 38.0938 171.928 37.8949 171.371C37.696 170.813 37.5966 170.138 37.5966 169.347C37.5966 168.561 37.696 167.89 37.8949 167.334C38.0961 166.775 38.3849 166.349 38.7614 166.055C39.1402 165.759 39.5947 165.611 40.125 165.611C40.6553 165.611 41.1087 165.759 41.4851 166.055C41.8639 166.349 42.1527 166.775 42.3516 167.334C42.5528 167.89 42.6534 168.561 42.6534 169.347C42.6534 170.138 42.554 170.813 42.3551 171.371C42.1562 171.928 41.8686 172.353 41.4922 172.646C41.1158 172.937 40.66 173.083 40.125 173.083ZM40.125 172.302C40.6553 172.302 41.0672 172.046 41.3608 171.535C41.6544 171.023 41.8011 170.294 41.8011 169.347C41.8011 168.717 41.7337 168.181 41.5987 167.739C41.4661 167.296 41.2744 166.958 41.0234 166.726C40.7749 166.494 40.4754 166.378 40.125 166.378C39.5994 166.378 39.1887 166.638 38.8928 167.156C38.5968 167.672 38.4489 168.403 38.4489 169.347C38.4489 169.977 38.5152 170.512 38.6477 170.952C38.7803 171.393 38.9709 171.728 39.2195 171.957C39.4704 172.187 39.7723 172.302 40.125 172.302ZM44.3739 173.04C44.1987 173.04 44.0484 172.978 43.9229 172.852C43.7975 172.727 43.7347 172.576 43.7347 172.401C43.7347 172.226 43.7975 172.076 43.9229 171.95C44.0484 171.825 44.1987 171.762 44.3739 171.762C44.5491 171.762 44.6995 171.825 44.8249 171.95C44.9504 172.076 45.0131 172.226 45.0131 172.401C45.0131 172.517 44.9835 172.624 44.9244 172.721C44.8675 172.818 44.7906 172.896 44.6935 172.955C44.5988 173.012 44.4923 173.04 44.3739 173.04ZM46.3324 171.492V170.768L49.5284 165.711H50.054V166.833H49.6989L47.2841 170.654V170.711H51.5881V171.492H46.3324ZM49.7557 172.984V171.272V170.935V165.711H50.5938V172.984H49.7557ZM55.3762 173.083C54.9075 173.083 54.4896 173.003 54.1227 172.842C53.7581 172.681 53.4681 172.457 53.2527 172.17C53.0396 171.882 52.9236 171.547 52.9047 171.165H53.7995C53.8185 171.4 53.899 171.602 54.041 171.773C54.1831 171.941 54.3689 172.071 54.5985 172.163C54.8282 172.256 55.0827 172.302 55.362 172.302C55.6745 172.302 55.9515 172.247 56.193 172.138C56.4345 172.03 56.6239 171.878 56.7612 171.684C56.8985 171.49 56.9672 171.265 56.9672 171.009C56.9672 170.742 56.9009 170.506 56.7683 170.302C56.6357 170.097 56.4416 169.936 56.1859 169.82C55.9302 169.704 55.6177 169.646 55.2484 169.646H54.666V168.864H55.2484C55.5372 168.864 55.7905 168.812 56.0083 168.708C56.2285 168.604 56.4002 168.457 56.5233 168.268C56.6487 168.078 56.7115 167.856 56.7115 167.6C56.7115 167.354 56.657 167.14 56.5481 166.957C56.4392 166.775 56.2853 166.633 56.0865 166.531C55.89 166.429 55.658 166.378 55.3904 166.378C55.1395 166.378 54.9028 166.425 54.6802 166.517C54.46 166.607 54.2801 166.738 54.1404 166.911C54.0008 167.082 53.925 167.288 53.9132 167.529H53.0609C53.0751 167.148 53.1899 166.814 53.4054 166.528C53.6208 166.239 53.9025 166.014 54.2505 165.853C54.6009 165.692 54.9856 165.611 55.4047 165.611C55.8545 165.611 56.2404 165.703 56.5623 165.885C56.8843 166.065 57.1317 166.303 57.3045 166.599C57.4773 166.895 57.5637 167.214 57.5637 167.557C57.5637 167.967 57.456 168.316 57.2406 168.605C57.0275 168.894 56.7375 169.094 56.3706 169.205V169.262C56.8298 169.338 57.1885 169.533 57.4466 169.848C57.7046 170.16 57.8336 170.548 57.8336 171.009C57.8336 171.405 57.7259 171.76 57.5105 172.074C57.2974 172.387 57.0062 172.633 56.6369 172.813C56.2676 172.993 55.8474 173.083 55.3762 173.083Z" fill="#292724"/>
<path d="M40.125 132.226C39.59 132.226 39.1342 132.08 38.7578 131.789C38.3814 131.495 38.0938 131.071 37.8949 130.514C37.696 129.955 37.5966 129.281 37.5966 128.49C37.5966 127.704 37.696 127.033 37.8949 126.477C38.0961 125.918 38.3849 125.492 38.7614 125.198C39.1402 124.902 39.5947 124.754 40.125 124.754C40.6553 124.754 41.1087 124.902 41.4851 125.198C41.8639 125.492 42.1527 125.918 42.3516 126.477C42.5528 127.033 42.6534 127.704 42.6534 128.49C42.6534 129.281 42.554 129.955 42.3551 130.514C42.1562 131.071 41.8686 131.495 41.4922 131.789C41.1158 132.08 40.66 132.226 40.125 132.226ZM40.125 131.445C40.6553 131.445 41.0672 131.189 41.3608 130.678C41.6544 130.166 41.8011 129.437 41.8011 128.49C41.8011 127.86 41.7337 127.324 41.5987 126.881C41.4661 126.439 41.2744 126.101 41.0234 125.869C40.7749 125.637 40.4754 125.521 40.125 125.521C39.5994 125.521 39.1887 125.781 38.8928 126.299C38.5968 126.815 38.4489 127.545 38.4489 128.49C38.4489 129.12 38.5152 129.655 38.6477 130.095C38.7803 130.535 38.9709 130.87 39.2195 131.1C39.4704 131.33 39.7723 131.445 40.125 131.445ZM44.3739 132.183C44.1987 132.183 44.0484 132.12 43.9229 131.995C43.7975 131.87 43.7347 131.719 43.7347 131.544C43.7347 131.369 43.7975 131.218 43.9229 131.093C44.0484 130.968 44.1987 130.905 44.3739 130.905C44.5491 130.905 44.6995 130.968 44.8249 131.093C44.9504 131.218 45.0131 131.369 45.0131 131.544C45.0131 131.66 44.9835 131.767 44.9244 131.864C44.8675 131.961 44.7906 132.039 44.6935 132.098C44.5988 132.155 44.4923 132.183 44.3739 132.183ZM48.6291 132.226C48.2124 132.226 47.8372 132.143 47.5034 131.977C47.1696 131.812 46.902 131.584 46.7008 131.295C46.4996 131.007 46.3895 130.678 46.3706 130.308H47.2228C47.256 130.637 47.4051 130.91 47.6703 131.125C47.9378 131.338 48.2574 131.445 48.6291 131.445C48.9274 131.445 49.1925 131.375 49.4245 131.235C49.6589 131.095 49.8424 130.904 49.975 130.66C50.1099 130.414 50.1774 130.135 50.1774 129.825C50.1774 129.508 50.1075 129.225 49.9679 128.977C49.8306 128.726 49.6412 128.528 49.3997 128.384C49.1582 128.239 48.8824 128.166 48.5723 128.163C48.3497 128.161 48.1213 128.195 47.8869 128.266C47.6525 128.335 47.4596 128.424 47.3081 128.533L46.4842 128.433L46.9245 124.854H50.7029V125.635H47.6632L47.4075 127.78H47.4501C47.5993 127.661 47.7863 127.563 48.0112 127.485C48.2361 127.407 48.4705 127.368 48.7143 127.368C49.1594 127.368 49.5559 127.474 49.9039 127.687C50.2543 127.898 50.5289 128.187 50.7278 128.554C50.929 128.921 51.0297 129.34 51.0297 129.811C51.0297 130.275 50.9255 130.689 50.7172 131.054C50.5112 131.416 50.2271 131.703 49.8649 131.913C49.5027 132.122 49.0907 132.226 48.6291 132.226ZM52.6676 132.126L55.9205 125.692V125.635H52.1705V124.854H56.8295V125.678L53.5909 132.126H52.6676Z" fill="#292724"/>
<path d="M40.125 91.3687C39.59 91.3687 39.1342 91.2231 38.7578 90.9319C38.3814 90.6384 38.0938 90.2134 37.8949 89.6571C37.696 89.0984 37.5966 88.4236 37.5966 87.6329C37.5966 86.8469 37.696 86.1758 37.8949 85.6194C38.0961 85.0607 38.3849 84.6346 38.7614 84.341C39.1402 84.0451 39.5947 83.8971 40.125 83.8971C40.6553 83.8971 41.1087 84.0451 41.4851 84.341C41.8639 84.6346 42.1527 85.0607 42.3516 85.6194C42.5528 86.1758 42.6534 86.8469 42.6534 87.6329C42.6534 88.4236 42.554 89.0984 42.3551 89.6571C42.1562 90.2134 41.8686 90.6384 41.4922 90.9319C41.1158 91.2231 40.66 91.3687 40.125 91.3687ZM40.125 90.5875C40.6553 90.5875 41.0672 90.3318 41.3608 89.8204C41.6544 89.3091 41.8011 88.5799 41.8011 87.6329C41.8011 87.0032 41.7337 86.467 41.5987 86.0243C41.4661 85.5816 41.2744 85.2442 41.0234 85.0122C40.7749 84.7802 40.4754 84.6642 40.125 84.6642C39.5994 84.6642 39.1887 84.9234 38.8928 85.4419C38.5968 85.958 38.4489 86.6883 38.4489 87.6329C38.4489 88.2627 38.5152 88.7977 38.6477 89.238C38.7803 89.6784 38.9709 90.0134 39.2195 90.243C39.4704 90.4726 39.7723 90.5875 40.125 90.5875ZM44.3739 91.3261C44.1987 91.3261 44.0484 91.2634 43.9229 91.1379C43.7975 91.0124 43.7347 90.8621 43.7347 90.6869C43.7347 90.5117 43.7975 90.3614 43.9229 90.2359C44.0484 90.1104 44.1987 90.0477 44.3739 90.0477C44.5491 90.0477 44.6995 90.1104 44.8249 90.2359C44.9504 90.3614 45.0131 90.5117 45.0131 90.6869C45.0131 90.8029 44.9835 90.9094 44.9244 91.0065C44.8675 91.1036 44.7906 91.1817 44.6935 91.2409C44.5988 91.2977 44.4923 91.3261 44.3739 91.3261ZM46.5836 91.2693L49.8365 84.8346V84.7778H46.0865V83.9966H50.7456V84.8204L47.5069 91.2693H46.5836ZM54.6261 83.9966V91.2693H53.7454V84.9199H53.7028L51.9272 86.0988V85.2039L53.7454 83.9966H54.6261Z" fill="#292724"/>
<path d="M40.125 50.5115C39.59 50.5115 39.1342 50.3659 38.7578 50.0748C38.3814 49.7812 38.0938 49.3562 37.8949 48.7999C37.696 48.2412 37.5966 47.5665 37.5966 46.7757C37.5966 45.9898 37.696 45.3186 37.8949 44.7623C38.0961 44.2035 38.3849 43.7774 38.7614 43.4838C39.1402 43.1879 39.5947 43.04 40.125 43.04C40.6553 43.04 41.1087 43.1879 41.4851 43.4838C41.8639 43.7774 42.1527 44.2035 42.3516 44.7623C42.5528 45.3186 42.6534 45.9898 42.6534 46.7757C42.6534 47.5665 42.554 48.2412 42.3551 48.7999C42.1562 49.3562 41.8686 49.7812 41.4922 50.0748C41.1158 50.3659 40.66 50.5115 40.125 50.5115ZM40.125 49.7303C40.6553 49.7303 41.0672 49.4746 41.3608 48.9632C41.6544 48.4519 41.8011 47.7227 41.8011 46.7757C41.8011 46.146 41.7337 45.6098 41.5987 45.1671C41.4661 44.7244 41.2744 44.387 41.0234 44.155C40.7749 43.923 40.4754 43.807 40.125 43.807C39.5994 43.807 39.1887 44.0662 38.8928 44.5847C38.5968 45.1008 38.4489 45.8311 38.4489 46.7757C38.4489 47.4055 38.5152 47.9405 38.6477 48.3809C38.7803 48.8212 38.9709 49.1562 39.2195 49.3858C39.4704 49.6155 39.7723 49.7303 40.125 49.7303ZM44.3739 50.4689C44.1987 50.4689 44.0484 50.4062 43.9229 50.2807C43.7975 50.1552 43.7347 50.0049 43.7347 49.8297C43.7347 49.6545 43.7975 49.5042 43.9229 49.3787C44.0484 49.2533 44.1987 49.1905 44.3739 49.1905C44.5491 49.1905 44.6995 49.2533 44.8249 49.3787C44.9504 49.5042 45.0131 49.6545 45.0131 49.8297C45.0131 49.9457 44.9835 50.0523 44.9244 50.1493C44.8675 50.2464 44.7906 50.3245 44.6935 50.3837C44.5988 50.4405 44.4923 50.4689 44.3739 50.4689ZM48.6078 50.5115C48.1201 50.5115 47.6892 50.4251 47.3152 50.2523C46.9435 50.0771 46.6535 49.8368 46.4451 49.5314C46.2368 49.2237 46.1338 48.8733 46.1362 48.4803C46.1338 48.1725 46.1942 47.8884 46.3173 47.628C46.4404 47.3652 46.6085 47.1462 46.8216 46.9711C47.037 46.7935 47.2773 46.681 47.5424 46.6337V46.5911C47.1944 46.5011 46.9174 46.3058 46.7115 46.0051C46.5055 45.7021 46.4037 45.3577 46.4061 44.9718C46.4037 44.6025 46.4972 44.2722 46.6866 43.981C46.876 43.6898 47.1364 43.4602 47.4679 43.2921C47.8017 43.124 48.1816 43.04 48.6078 43.04C49.0292 43.04 49.4056 43.124 49.737 43.2921C50.0685 43.4602 50.3289 43.6898 50.5183 43.981C50.71 44.2722 50.8071 44.6025 50.8095 44.9718C50.8071 45.3577 50.7018 45.7021 50.4934 46.0051C50.2875 46.3058 50.014 46.5011 49.6731 46.5911V46.6337C49.9359 46.681 50.1726 46.7935 50.3833 46.9711C50.594 47.1462 50.7621 47.3652 50.8876 47.628C51.0131 47.8884 51.077 48.1725 51.0794 48.4803C51.077 48.8733 50.9705 49.2237 50.7598 49.5314C50.5514 49.8368 50.2614 50.0771 49.8897 50.2523C49.5204 50.4251 49.0931 50.5115 48.6078 50.5115ZM48.6078 49.7303C48.9368 49.7303 49.2209 49.677 49.46 49.5705C49.6992 49.464 49.8838 49.3136 50.014 49.1195C50.1442 48.9254 50.2105 48.6981 50.2129 48.4377C50.2105 48.1631 50.1395 47.9204 49.9998 47.7097C49.8601 47.499 49.6696 47.3333 49.4281 47.2125C49.189 47.0918 48.9155 47.0314 48.6078 47.0314C48.2976 47.0314 48.0207 47.0918 47.7768 47.2125C47.5353 47.3333 47.3448 47.499 47.2051 47.7097C47.0678 47.9204 47.0003 48.1631 47.0027 48.4377C47.0003 48.6981 47.063 48.9254 47.1909 49.1195C47.3211 49.3136 47.5069 49.464 47.7484 49.5705C47.9899 49.677 48.2763 49.7303 48.6078 49.7303ZM48.6078 46.2786C48.8682 46.2786 49.099 46.2265 49.3002 46.1223C49.5038 46.0182 49.6636 45.8726 49.7797 45.6855C49.8957 45.4985 49.9548 45.2795 49.9572 45.0286C49.9548 44.7824 49.8968 44.5681 49.7832 44.3858C49.6696 44.2012 49.5121 44.0591 49.3109 43.9597C49.1097 43.8579 48.8753 43.807 48.6078 43.807C48.3355 43.807 48.0976 43.8579 47.894 43.9597C47.6904 44.0591 47.533 44.2012 47.4217 44.3858C47.3104 44.5681 47.256 44.7824 47.2583 45.0286C47.256 45.2795 47.3116 45.4985 47.4252 45.6855C47.5413 45.8726 47.7011 46.0182 47.9047 46.1223C48.1083 46.2265 48.3426 46.2786 48.6078 46.2786ZM54.8551 50.5115C54.5568 50.5068 54.2585 50.45 53.9602 50.3411C53.6619 50.2322 53.3897 50.0487 53.1435 49.7907C52.8973 49.5302 52.6996 49.1787 52.5504 48.736C52.4013 48.2909 52.3267 47.7322 52.3267 47.0598C52.3267 46.4159 52.3871 45.8453 52.5078 45.3482C52.6286 44.8487 52.8037 44.4284 53.0334 44.0875C53.263 43.7443 53.54 43.4838 53.8643 43.3063C54.1911 43.1287 54.5592 43.04 54.9688 43.04C55.3759 43.04 55.7382 43.1216 56.0554 43.285C56.375 43.446 56.6354 43.6709 56.8366 43.9597C57.0379 44.2485 57.1681 44.5811 57.2273 44.9576H56.3608C56.2803 44.6309 56.1241 44.3598 55.892 44.1444C55.66 43.9289 55.3523 43.8212 54.9688 43.8212C54.4053 43.8212 53.9614 44.0662 53.6371 44.5563C53.3151 45.0463 53.1529 45.7341 53.1506 46.6195H53.2074C53.34 46.4183 53.4974 46.2466 53.6797 46.1046C53.8643 45.9602 54.0679 45.8489 54.2905 45.7708C54.513 45.6926 54.7486 45.6536 54.9972 45.6536C55.4138 45.6536 55.795 45.7578 56.1406 45.9661C56.4863 46.1721 56.7633 46.4573 56.9716 46.8219C57.1799 47.1841 57.2841 47.5996 57.2841 48.0684C57.2841 48.5182 57.1835 48.9301 56.9822 49.3042C56.781 49.6758 56.4981 49.9718 56.1335 50.1919C55.7713 50.4097 55.3452 50.5163 54.8551 50.5115ZM54.8551 49.7303C55.1534 49.7303 55.4209 49.6557 55.6577 49.5066C55.8968 49.3574 56.085 49.1574 56.2223 48.9064C56.362 48.6555 56.4318 48.3761 56.4318 48.0684C56.4318 47.7677 56.3643 47.4943 56.2294 47.248C56.0968 46.9995 55.9134 46.8018 55.679 46.655C55.447 46.5082 55.1818 46.4348 54.8835 46.4348C54.6586 46.4348 54.4491 46.4798 54.255 46.5698C54.0608 46.6574 53.8904 46.7781 53.7436 46.932C53.5992 47.0859 53.4856 47.2623 53.4027 47.4611C53.3198 47.6576 53.2784 47.8648 53.2784 48.0826C53.2784 48.3714 53.3459 48.6413 53.4808 48.8922C53.6181 49.1432 53.8052 49.3456 54.0419 49.4995C54.281 49.6533 54.5521 49.7303 54.8551 49.7303Z" fill="#292724"/>
<path d="M40.3097 2.28227V9.55499H39.429V3.20556H39.3864L37.6108 4.38454V3.48965L39.429 2.28227H40.3097ZM42.5966 9.61181C42.4214 9.61181 42.2711 9.54907 42.1456 9.4236C42.0201 9.29813 41.9574 9.1478 41.9574 8.97261C41.9574 8.79742 42.0201 8.64709 42.1456 8.52161C42.2711 8.39614 42.4214 8.3334 42.5966 8.3334C42.7718 8.3334 42.9221 8.39614 43.0476 8.52161C43.1731 8.64709 43.2358 8.79742 43.2358 8.97261C43.2358 9.08861 43.2062 9.19514 43.147 9.29221C43.0902 9.38927 43.0133 9.4674 42.9162 9.52658C42.8215 9.5834 42.715 9.61181 42.5966 9.61181ZM46.8438 9.65442C46.3087 9.65442 45.853 9.50883 45.4766 9.21763C45.1001 8.92407 44.8125 8.49912 44.6136 7.94278C44.4148 7.38406 44.3153 6.70935 44.3153 5.91863C44.3153 5.13264 44.4148 4.46148 44.6136 3.90513C44.8149 3.34642 45.1037 2.92029 45.4801 2.62673C45.8589 2.3308 46.3134 2.18283 46.8438 2.18283C47.3741 2.18283 47.8274 2.3308 48.2038 2.62673C48.5826 2.92029 48.8714 3.34642 49.0703 3.90513C49.2715 4.46148 49.3722 5.13264 49.3722 5.91863C49.3722 6.70935 49.2727 7.38406 49.0739 7.94278C48.875 8.49912 48.5874 8.92407 48.2109 9.21763C47.8345 9.50883 47.3788 9.65442 46.8438 9.65442ZM46.8438 8.87317C47.3741 8.87317 47.786 8.61749 48.0795 8.10613C48.3731 7.59477 48.5199 6.8656 48.5199 5.91863C48.5199 5.28889 48.4524 4.75267 48.3175 4.30996C48.1849 3.86726 47.9931 3.5299 47.7422 3.29789C47.4936 3.06588 47.1941 2.94988 46.8438 2.94988C46.3182 2.94988 45.9074 3.20911 45.6115 3.72758C45.3156 4.24368 45.1676 4.97403 45.1676 5.91863C45.1676 6.54836 45.2339 7.0834 45.3665 7.52374C45.4991 7.96408 45.6896 8.29907 45.9382 8.52871C46.1892 8.75835 46.491 8.87317 46.8438 8.87317ZM53.0938 9.65442C52.5587 9.65442 52.103 9.50883 51.7266 9.21763C51.3501 8.92407 51.0625 8.49912 50.8636 7.94278C50.6648 7.38406 50.5653 6.70935 50.5653 5.91863C50.5653 5.13264 50.6648 4.46148 50.8636 3.90513C51.0649 3.34642 51.3537 2.92029 51.7301 2.62673C52.1089 2.3308 52.5634 2.18283 53.0938 2.18283C53.6241 2.18283 54.0774 2.3308 54.4538 2.62673C54.8326 2.92029 55.1214 3.34642 55.3203 3.90513C55.5215 4.46148 55.6222 5.13264 55.6222 5.91863C55.6222 6.70935 55.5227 7.38406 55.3239 7.94278C55.125 8.49912 54.8374 8.92407 54.4609 9.21763C54.0845 9.50883 53.6288 9.65442 53.0938 9.65442ZM53.0938 8.87317C53.6241 8.87317 54.036 8.61749 54.3295 8.10613C54.6231 7.59477 54.7699 6.8656 54.7699 5.91863C54.7699 5.28889 54.7024 4.75267 54.5675 4.30996C54.4349 3.86726 54.2431 3.5299 53.9922 3.29789C53.7436 3.06588 53.4441 2.94988 53.0938 2.94988C52.5682 2.94988 52.1574 3.20911 51.8615 3.72758C51.5656 4.24368 51.4176 4.97403 51.4176 5.91863C51.4176 6.54836 51.4839 7.0834 51.6165 7.52374C51.7491 7.96408 51.9396 8.29907 52.1882 8.52871C52.4392 8.75835 52.741 8.87317 53.0938 8.87317Z" fill="#292724"/>
<defs>
<linearGradient id="paint0_linear_1_3" x1="16" y1="293" x2="16" y2="7" gradientUnits="userSpaceOnUse">
<stop stop-color="#000004"/>
<stop offset="0.015873" stop-color="#02010A"/>
<stop offset="0.031746" stop-color="#040313"/>
<stop offset="0.047619" stop-color="#07051B"/>
<stop offset="0.0634921" stop-color="#0B0724"/>
<stop offset="0.0793651" stop-color="#10092E"/>
<stop offset="0.0952381" stop-color="#150B38"/>
<stop offset="0.111111" stop-color="#1B0C42"/>
<stop offset="0.126984" stop-color="#220C4B"/>
<stop offset="0.142857" stop-color="#290B54"/>
<stop offset="0.15873" stop-color="#300A5B"/>
<stop offset="0.174603" stop-color="#370961"/>
<stop offset="0.190476" stop-color="#3E0965"/>
<stop offset="0.206349" stop-color="#450A69"/>
<stop offset="0.222222" stop-color="#4B0C6B"/>
<stop offset="0.238095" stop-color="#520E6D"/>
<stop offset="0.253968" stop-color="#58106E"/>
<stop offset="0.269841" stop-color="#5F136E"/>
<stop offset="0.285714" stop-color="#65156E"/>
<stop offset="0.301587" stop-color="#6C186E"/>
<stop offset="0.31746" stop-color="#721A6E"/>
<stop offset="0.333333" stop-color="#781C6D"/>
<stop offset="0.349206" stop-color="#7F1E6C"/>
<stop offset="0.365079" stop-color="#85216B"/>
<stop offset="0.380952" stop-color="#8C2369"/>
<stop offset="0.396825" stop-color="#922568"/>
<stop offset="0.412698" stop-color="#982865"/>
<stop offset="0.428571" stop-color="#9F2A63"/>
<stop offset="0.444444" stop-color="#A52D60"/>
<stop offset="0.460317" stop-color="#AC2F5D"/>
<stop offset="0.47619" stop-color="#B2325A"/>
<stop offset="0.492063" stop-color="#B83556"/>
<stop offset="0.507937" stop-color="#BE3853"/>
<stop offset="0.52381" stop-color="#C43C4F"/>
<stop offset="0.539683" stop-color="#C93F4B"/>
<stop offset="0.555556" stop-color="#CF4446"/>
<stop offset="0.571429" stop-color="#D44842"/>
<stop offset="0.587302" stop-color="#D94D3D"/>
<stop offset="0.603175" stop-color="#DE5239"/>
<stop offset="0.619048" stop-color="#E25734"/>
<stop offset="0.634921" stop-color="#E65D2F"/>
<stop offset="0.650794" stop-color="#EA632A"/>
<stop offset="0.666667" stop-color="#ED6925"/>
<stop offset="0.68254" stop-color="#F06F20"/>
<stop offset="0.698413" stop-color="#F3761B"/>
<stop offset="0.714286" stop-color="#F57D15"/>
<stop offset="0.730159" stop-color="#F78410"/>
<stop offset="0.746032" stop-color="#F98B0B"/>
<stop offset="0.761905" stop-color="#FA9207"/>
<stop offset="0.777778" stop-color="#FB9A06"/>
<stop offset="0.793651" stop-color="#FCA108"/>
<stop offset="0.809524" stop-color="#FCA90E"/>
<stop offset="0.825397" stop-color="#FCB115"/>
<stop offset="0.84127" stop-color="#FBB91E"/>
<stop offset="0.857143" stop-color="#FAC127"/>
<stop offset="0.873016" stop-color="#F9C931"/>
<stop offset="0.888889" stop-color="#F7D13C"/>
<stop offset="0.904762" stop-color="#F6D848"/>
<stop offset="0.920635" stop-color="#F4E055"/>
<stop offset="0.936508" stop-color="#F2E864"/>
<stop offset="0.952381" stop-color="#F1EF74"/>
<stop offset="0.968254" stop-color="#F3F585"/>
<stop offset="0.984127" stop-color="#F6FA95"/>
<stop offset="1" stop-color="#FCFEA4"/>
</linearGradient>
</defs>
</svg>
